# xmcd CD database file
#
# Track frame offsets:
#	225
#	60724
#	72028
#	82366
#	95086
#	109052
#	118171
#	134330
#	145199
#	160337
#	169678
#	181054
#	195694
#	209750
#	221395
#	240406
#	245889
#	259593
#	267327
#	278016
#
# Disc length: 3888 seconds
#
# Revision: 0
# Processed by: cddbd v1.5.1PL0 Copyright (c) Steve Scherf et al.
# Submitted via: CDex 1.51
#
DISCID=360f2d14
DTITLE=Masters of the Piano Roll - Gershwin plays Gershwin
DYEAR=2003
DGENRE=Jazz
TTITLE0=Rhapsody in Blue-Gershwin
TTITLE1=That Certain Feeling-Gershwin
TTITLE2=Swanee-Gershwin/Caesar
TTITLE3=Kickin' the Clouds Away-Gershwin
TTITLE4=Limehouse Nights-Gershwin
TTITLE5=Drifting Along with the Tide-Gershwin/De Silva
TTITLE6=Rockabye Lullabye Mammy-Donaldson
TTITLE7=Tee-Oodle-Um-Bum-Bo-Gershwin
TTITLE8=I Was So Young, You Were So Beautiful-Gershwin/Brian
TTITLE9=Left Alone Again Blues-Kern
TTITLE10=Whose Baby Are You?-Kern
TTITLE11=Whipowill-Kern
TTITLE12=Land Were Good Songs Go-Kern
TTITLE13=For Your Country and My Country-Berlin
TTITLE14=So Am I-Gershwin
TTITLE15=East Is West-Bowers
TTITLE16=Yearning-Moret
TTITLE17=I'm Forever Blowing Bubbles-Kenbrovin/Kellette
TTITLE18=Novellette in 4ths-Gershwin
TTITLE19=Sweet and Low Down-Gershwin
EXTD=YEAR: 2003
EXTT0=
EXTT1=
EXTT2=
EXTT3=
EXTT4=
EXTT5=
EXTT6=
EXTT7=
EXTT8=
EXTT9=
EXTT10=
EXTT11=
EXTT12=
EXTT13=
EXTT14=
EXTT15=
EXTT16=
EXTT17=
EXTT18=
EXTT19=
PLAYORDER=
